Coordinates
version=1
nRows=13
nColumns=22
inDegrees=yes

Units are S.I. units (second, meters, Newtons, ...)
If the header above contains a line with 'inDegrees', this indicates whether rotational values are in degrees (yes) or radians (no).

endheader
time	pelvis_tilt	pelvis_list	pelvis_rotation	pelvis_tx	pelvis_ty	pelvis_tz	hip_flexion_r	hip_adduction_r	hip_rotation_r	knee_angle_r	ankle_angle_r	subtalar_angle_r	hip_flexion_l	hip_adduction_l	hip_rotation_l	knee_angle_l	ankle_angle_l	subtalar_angle_l	lumbar_extension	lumbar_bending	lumbar_rotation
      1.20000000	     -0.07507389	      4.39784795	    179.51756772	     -1.16580208	      1.01545964	     -0.13572671	     15.42722142	      5.66223848	     -4.60825109	    -13.99004803	     -1.51782387	     -1.33801607	      4.65615471	     -5.23434608	      3.66923599	    -33.22807075	     13.76609462	      7.10434235	    -11.72842581	      5.44462928	      7.93321786
      1.21000000	     -0.09045200	      4.53950803	    179.40333415	     -1.16042511	      1.01484771	     -0.13399969	     15.68540903	      5.71227579	     -4.52175152	    -13.86703816	     -1.97346941	     -1.05431844	      4.20531661	     -5.31458376	      3.56760260	    -31.96753588	     14.41133065	      6.77076930	    -11.81404846	      5.53964583	      7.79847448
      1.22000000	     -0.12417054	      4.68510096	    179.28768428	     -1.15492678	      1.01430918	     -0.13228897	     15.91843614	      5.76676675	     -4.44706825	    -13.72261849	     -2.45462043	     -0.73982258	      3.78566610	     -5.40812436	      3.29202181	    -30.76626856	     15.07162684	      6.24843248	    -11.92863404	      5.62694837	      7.67368824
      1.23000000	     -0.19074145	      4.80218248	    179.17890044	     -1.14926231	      1.01388401	     -0.13058647	     16.12851469	      5.78528934	     -4.43198017	    -13.58738590	     -2.91791503	     -0.35212166	      3.38503322	     -5.46830002	      2.88622265	    -29.62425686	     15.68712927	      5.46782907	    -12.09857666	      5.66674887	      7.53398290
      1.24000000	     -0.22853954	      4.92287517	    179.04733098	     -1.14344310	      1.01347038	     -0.12897697	     16.35926676	      5.81860378	     -4.41495950	    -13.41546559	     -3.41909135	      0.01788114	      3.09129406	     -5.54682787	      2.28692356	    -28.59283823	     16.26212776	      4.68600616	    -12.24710869	      5.69535429	      7.40978553
      1.25000000	     -0.24634978	      5.00887999	    178.91349305	     -1.13746677	      1.01309779	     -0.12741212	     16.60652666	      5.81671859	     -4.44135991	    -13.21979498	     -3.88701421	      0.43183423	      2.88160858	     -5.58097425	      1.62410503	    -27.64122469	     16.75849393	      3.82323723	    -12.38353330	      5.67178507	      7.28738024
      1.26000000	     -0.22871946	      5.05432642	    178.77489648	     -1.13134121	      1.01273612	     -0.12588051	     16.88969717	      5.77355677	     -4.51547856	    -13.00842807	     -4.29412974	      0.88931090	      2.77892203	     -5.56324750	      0.94031731	    -26.78308355	     17.16149281	      2.94911212	    -12.48673621	      5.59495424	      7.16618987
      1.27000000	     -0.15893946	      5.06032719	    178.61419206	     -1.12507653	      1.01234791	     -0.12442983	     17.21394456	      5.70184041	     -4.58587786	    -12.75746619	     -4.63982307	      1.35325369	      2.81012375	     -5.50614008	      0.23640901	    -26.04450355	     17.47360084	      2.19833617	    -12.53630025	      5.46410078	      7.06407452
      1.28000000	     -0.05765568	      5.00450818	    178.48062934	     -1.11865319	      1.01194438	     -0.12293930	     17.59808501	      5.55334637	     -4.74880924	    -12.54845113	     -4.81145084	      1.94002596	      2.95137875	     -5.36959866	     -0.33347420	    -25.40511578	     17.68888609	      1.41621049	    -12.55723671	      5.26860911	      6.90896319
      1.29000000	      0.09103892	      4.90138190	    178.33912254	     -1.11214703	      1.01150640	     -0.12146265	     18.02696616	      5.36177313	     -4.91588359	    -12.32921821	     -4.84152502	      2.52250561	      3.20284401	     -5.17970866	     -0.79448374	    -24.85555781	     17.82779156	      0.82075104	    -12.52065820	      5.02268493	      6.77042552
      1.30000000	      0.27027487	      4.77174637	    178.23117712	     -1.10556679	      1.01103695	     -0.11990263	     18.47647026	      5.13190965	     -5.14353100	    -12.09263078	     -4.71449485	      3.16991294	      3.57777066	     -4.96169729	     -1.11959360	    -24.44706171	     17.92216411	      0.30217782	    -12.44520670	      4.76518075	      6.61468250
      1.31000000	      0.46765224	      4.58828619	    178.11202132	     -1.09897706	      1.01057231	     -0.11831418	     18.94952519	      4.85208025	     -5.33984199	    -11.88471225	     -4.42331687	      3.76874812	      4.00953338	     -4.68140949	     -1.32839599	    -24.10190368	     17.93955379	     -0.06920594	    -12.33979735	      4.46005883	      6.47172283
      1.32000000	      0.66366502	      4.36996413	    178.00745589	     -1.09242423	      1.01013863	     -0.11664210	     19.42313029	      4.53094168	     -5.54233198	    -11.71607149	     -4.00400405	      4.33299351	      4.48150186	     -4.35921596	     -1.43370456	    -23.82767173	     17.91010592	     -0.35845383	    -12.22221298	      4.13545626	      6.34075017
